<svg xmlns="http://www.w3.org/2000/svg" xmlns:xlink="http://www.w3.org/1999/xlink" width="500" zoomAndPan="magnify" viewBox="0 0 375 374.999991" height="500" preserveAspectRatio="xMidYMid meet" version="1.0"><defs><g/><clipPath id="672c943cbb"><path d="M 61.03125 63 L 313.78125 63 L 313.78125 255 L 61.03125 255 Z M 61.03125 63 " clip-rule="nonzero"/></clipPath></defs><path fill="#f08f5f" d="M 82.21875 197.953125 C 80.90625 195.421875 79.78125 192.792969 78.683594 190.144531 C 73.523438 177.085938 70.992188 162.902344 70.992188 147.597656 L 70.992188 147 C 70.992188 132.507812 73.621094 118.636719 78.898438 105.480469 C 84.273438 92.417969 91.679688 80.863281 101.304688 71.023438 C 110.929688 61.1875 122.375 53.40625 135.558594 47.625 C 148.839844 41.847656 163.316406 39.007812 179.035156 39.007812 C 188.160156 39.007812 196.472656 39.605469 203.972656 40.941406 C 211.472656 42.160156 218.351562 44.09375 224.753906 46.410156 C 231.132812 48.84375 237.128906 51.78125 242.789062 55.21875 C 248.472656 58.65625 253.945312 62.714844 259.316406 67.277344 C 245.726562 71.835938 232.566406 77.210938 219.785156 83.273438 C 216.847656 81.554688 213.8125 80.121094 210.660156 78.808594 C 206.097656 76.875 201.128906 75.371094 195.660156 74.34375 C 190.1875 73.222656 184.097656 72.625 177.527344 72.625 C 167.996094 72.625 159.085938 74.65625 150.871094 78.59375 C 142.558594 82.652344 135.464844 88.023438 129.394531 94.589844 C 123.304688 101.277344 118.550781 109.085938 115.015625 118.085938 C 111.574219 127.109375 109.855469 136.519531 109.855469 146.546875 L 109.855469 147.046875 C 109.855469 152.515625 110.261719 157.886719 111.171875 162.949219 C 100.777344 173.957031 91.128906 185.703125 82.21875 197.953125 Z M 82.21875 197.953125 " fill-opacity="1" fill-rule="evenodd"/><g clip-path="url(#672c943cbb)"><path fill="#d63533" d="M 179.320312 254.992188 C 163.003906 254.992188 148.21875 252.246094 134.816406 246.78125 C 134.007812 246.46875 133.195312 246.0625 132.382812 245.777344 C 131.878906 247.589844 131.378906 249.523438 130.972656 251.460938 L 61.03125 251.460938 C 112.316406 152.085938 203.734375 83.800781 313.78125 63.242188 C 235.644531 95.761719 173.730469 139.121094 143.511719 212.039062 C 146.046875 213.566406 148.792969 214.976562 151.609375 216.195312 C 160.234375 220.039062 169.859375 221.875 180.585938 221.875 C 190.523438 221.875 199.839844 220.46875 208.460938 217.625 C 217.085938 214.691406 224.585938 210.84375 230.964844 205.976562 L 230.964844 166.675781 L 189.019531 166.675781 C 198.550781 155.023438 209.296875 144.398438 220.929688 134.773438 L 266.4375 134.773438 L 266.4375 222.496094 C 261.277344 226.84375 255.589844 231.117188 249.308594 235.054688 C 243.027344 238.996094 236.242188 242.554688 229.027344 245.488281 C 221.742188 248.523438 213.933594 250.863281 205.523438 252.484375 C 197.257812 254.179688 188.421875 254.992188 179.320312 254.992188 Z M 179.320312 254.992188 " fill-opacity="1" fill-rule="evenodd"/></g><g fill="#d63533" fill-opacity="1"><g transform="translate(91.230512, 306.498427)"><g><path d="M 12.4375 0.574219 L 13.011719 0.515625 L 14.273438 0.515625 L 15.191406 0.34375 L 15.992188 0.171875 L 16.28125 0.113281 L 17.484375 -0.0585938 L 18.34375 -0.402344 L 19.089844 -0.746094 L 19.546875 -1.089844 L 19.890625 -1.261719 L 20.578125 -1.71875 L 21.265625 -2.578125 L 21.78125 -3.324219 L 22.011719 -3.726562 L 22.414062 -4.585938 L 22.527344 -4.988281 L 22.644531 -5.332031 L 22.871094 -5.730469 L 23.160156 -6.476562 L 23.332031 -6.992188 L 23.445312 -7.453125 L 23.617188 -7.738281 L 23.730469 -8.828125 L 23.902344 -9.230469 L 24.132812 -10.03125 L 24.246094 -10.949219 L 24.363281 -11.578125 L 24.476562 -12.265625 L 24.535156 -12.667969 L 24.707031 -13.355469 L 24.765625 -13.757812 L 24.878906 -14.503906 L 24.992188 -14.847656 L 24.9375 -15.25 L 25.050781 -15.59375 L 25.222656 -16.335938 L 25.222656 -16.679688 L 25.28125 -17.082031 L 25.335938 -17.425781 L 25.394531 -17.886719 L 25.507812 -18.574219 L 25.507812 -19.03125 L 25.625 -19.777344 L 25.625 -21.210938 L 24.9375 -21.496094 L 23.730469 -21.496094 L 22.929688 -21.554688 L 22.527344 -21.496094 L 20.464844 -21.496094 L 19.546875 -21.554688 L 18.628906 -21.496094 L 18.171875 -21.554688 L 16.796875 -21.496094 L 16.507812 -21.152344 L 16.453125 -20.921875 L 16.164062 -19.660156 L 16.109375 -19.203125 L 15.992188 -18.628906 L 15.820312 -17.253906 L 15.535156 -15.707031 L 15.535156 -15.019531 L 15.878906 -14.675781 L 17.195312 -14.675781 L 17.597656 -14.617188 L 17.714844 -14.332031 L 17.425781 -12.09375 L 17.082031 -10.777344 L 16.910156 -10.203125 L 16.738281 -9.6875 L 16.453125 -9 L 16.222656 -8.484375 L 15.820312 -7.96875 L 15.191406 -7.566406 L 14.503906 -7.335938 L 13.414062 -7.335938 L 12.324219 -7.507812 L 11.75 -7.796875 L 11.578125 -7.96875 L 11.351562 -8.371094 L 11.007812 -8.886719 L 11.007812 -9.457031 L 10.949219 -10.03125 L 10.949219 -10.890625 L 11.007812 -11.695312 L 11.0625 -12.4375 L 11.121094 -12.78125 L 11.179688 -13.183594 L 11.234375 -13.929688 L 11.292969 -14.730469 L 11.292969 -15.363281 L 11.464844 -15.992188 L 11.636719 -16.566406 L 11.636719 -16.96875 L 11.695312 -17.769531 L 11.808594 -18.113281 L 11.867188 -18.859375 L 11.980469 -19.261719 L 12.152344 -20.007812 L 12.382812 -21.09375 L 12.4375 -21.726562 L 12.609375 -22.472656 L 12.78125 -22.988281 L 12.839844 -23.503906 L 12.957031 -24.074219 L 13.128906 -24.476562 L 13.242188 -25.222656 L 13.300781 -25.625 L 13.527344 -26.082031 L 13.644531 -26.769531 L 13.757812 -27.171875 L 13.816406 -27.515625 L 14.042969 -28.03125 L 14.042969 -28.433594 L 14.214844 -28.832031 L 14.273438 -29.292969 L 14.445312 -29.980469 L 14.789062 -30.726562 L 15.132812 -31.355469 L 15.191406 -31.699219 L 15.363281 -32.101562 L 15.59375 -32.503906 L 15.765625 -32.847656 L 16.222656 -33.304688 L 16.738281 -33.589844 L 17.140625 -33.707031 L 18.402344 -33.707031 L 18.972656 -33.476562 L 19.316406 -33.132812 L 19.605469 -32.730469 L 19.660156 -32.386719 L 19.71875 -31.757812 L 19.777344 -31.355469 L 19.605469 -30.324219 L 19.660156 -29.808594 L 19.546875 -29.40625 L 19.433594 -28.660156 L 19.316406 -27.746094 L 19.261719 -27.113281 L 19.316406 -26.65625 L 19.890625 -26.425781 L 20.523438 -26.367188 L 22.125 -26.367188 L 22.699219 -26.3125 L 23.617188 -26.367188 L 24.59375 -26.3125 L 25.738281 -26.367188 L 26.253906 -26.710938 L 26.597656 -27.457031 L 26.710938 -28.316406 L 26.769531 -28.832031 L 26.828125 -29.523438 L 26.941406 -30.210938 L 26.941406 -30.609375 L 27 -31.296875 L 27 -31.929688 L 27.058594 -32.675781 L 27.058594 -34.910156 L 27 -35.65625 L 26.941406 -36.285156 L 26.710938 -36.917969 L 26.597656 -37.433594 L 26.425781 -37.660156 L 26.253906 -38.003906 L 25.453125 -38.808594 L 24.765625 -39.382812 L 23.960938 -39.667969 L 22.988281 -40.070312 L 22.585938 -40.242188 L 21.609375 -40.414062 L 20.867188 -40.414062 L 20.40625 -40.527344 L 19.660156 -40.640625 L 18.917969 -40.699219 L 17.367188 -40.640625 L 15.648438 -40.640625 L 14.847656 -40.46875 L 13.929688 -40.355469 L 13.183594 -40.125 L 12.4375 -39.839844 L 11.695312 -39.4375 L 10.949219 -39.09375 L 10.203125 -38.523438 L 9.574219 -37.832031 L 9.34375 -37.546875 L 9.171875 -37.203125 L 8.941406 -36.917969 L 8.65625 -36.285156 L 8.371094 -35.769531 L 8.253906 -35.367188 L 8.082031 -35.023438 L 7.738281 -34.28125 L 7.566406 -33.820312 L 7.394531 -33.476562 L 7.164062 -32.675781 L 6.9375 -31.988281 L 6.878906 -31.699219 L 6.59375 -31.011719 L 6.421875 -30.667969 L 6.304688 -30.265625 L 6.132812 -29.921875 L 6.078125 -29.523438 L 5.90625 -29.179688 L 5.847656 -28.832031 L 5.730469 -28.433594 L 5.675781 -27.800781 L 5.445312 -27.285156 L 5.386719 -26.828125 L 5.273438 -26.082031 L 5.101562 -25.453125 L 4.871094 -24.648438 L 4.816406 -24.246094 L 4.644531 -23.675781 L 4.699219 -23.160156 L 4.527344 -22.414062 L 4.242188 -21.210938 L 4.128906 -20.40625 L 3.898438 -19.605469 L 3.839844 -19.144531 L 3.785156 -18.230469 L 3.554688 -17.425781 L 3.496094 -16.566406 L 3.324219 -15.765625 L 3.324219 -15.019531 L 3.09375 -14.273438 L 3.210938 -13.871094 L 3.09375 -13.128906 L 3.039062 -12.726562 L 2.980469 -11.980469 L 2.921875 -11.636719 L 2.867188 -11.234375 L 2.867188 -10.488281 L 2.808594 -10.261719 L 2.808594 -9.457031 L 2.695312 -8.886719 L 2.636719 -7.851562 L 2.867188 -6.648438 L 2.867188 -6.304688 L 3.039062 -5.90625 L 3.265625 -5.332031 L 3.324219 -4.871094 L 3.496094 -4.300781 L 3.667969 -3.785156 L 4.070312 -3.382812 L 4.472656 -2.695312 L 4.644531 -2.40625 L 4.871094 -2.121094 L 5.445312 -1.492188 L 5.90625 -1.261719 L 6.707031 -0.628906 L 7.507812 -0.230469 L 8.484375 0 L 9.058594 0.171875 L 10.03125 0.402344 L 10.375 0.402344 L 11.292969 0.515625 L 11.695312 0.515625 Z M 12.4375 0.574219 "/></g></g></g><g fill="#d63533" fill-opacity="1"><g transform="translate(117.713079, 306.498427)"><g><path d="M 8.425781 0.0585938 L 8.886719 0 L 9.800781 -0.0585938 L 11.007812 -0.0585938 L 11.351562 -0.113281 L 12.09375 -0.0585938 L 13.011719 -0.113281 L 18.457031 -0.113281 L 18.628906 -0.746094 L 18.746094 -1.261719 L 18.800781 -2.234375 L 18.972656 -3.09375 L 19.03125 -3.496094 L 19.144531 -3.839844 L 19.261719 -4.242188 L 19.261719 -4.988281 L 19.488281 -6.25 L 19.546875 -6.707031 L 19.660156 -7.335938 L 19.71875 -7.566406 L 19.777344 -8.023438 L 19.375 -8.199219 L 17.769531 -8.140625 L 16.507812 -8.199219 L 15.707031 -8.253906 L 12.324219 -8.253906 L 11.523438 -8.371094 L 11.292969 -8.597656 L 11.292969 -9.058594 L 11.523438 -10.546875 L 11.695312 -11.578125 L 11.808594 -11.980469 L 11.867188 -12.554688 L 11.980469 -13.070312 L 12.152344 -13.644531 L 12.382812 -15.25 L 12.554688 -15.992188 L 12.78125 -16.625 L 13.300781 -16.625 L 14.042969 -16.679688 L 14.675781 -16.679688 L 15.648438 -16.625 L 17.082031 -16.679688 L 17.597656 -16.679688 L 18.457031 -16.738281 L 19.03125 -16.738281 L 19.144531 -16.851562 L 19.261719 -17.65625 L 19.433594 -18.574219 L 19.546875 -19.375 L 19.71875 -19.835938 L 19.71875 -20.234375 L 19.890625 -21.09375 L 20.007812 -21.496094 L 20.179688 -22.300781 L 20.292969 -22.929688 L 20.292969 -23.386719 L 20.40625 -24.074219 L 20.0625 -24.535156 L 19.605469 -24.648438 L 18.113281 -24.648438 L 17.023438 -24.535156 L 15.019531 -24.59375 L 13.988281 -24.59375 L 14.101562 -25.625 L 14.273438 -26.195312 L 14.214844 -26.65625 L 14.332031 -27.058594 L 14.503906 -27.859375 L 14.617188 -28.660156 L 14.789062 -29.75 L 14.789062 -30.210938 L 14.960938 -30.554688 L 14.960938 -31.355469 L 15.019531 -31.757812 L 15.191406 -32.445312 L 16.566406 -32.503906 L 20.292969 -32.503906 L 20.980469 -32.558594 L 23.386719 -32.558594 L 23.960938 -32.617188 L 24.132812 -33.363281 L 24.191406 -33.707031 L 24.417969 -34.507812 L 24.417969 -34.96875 L 24.59375 -35.828125 L 24.648438 -36.171875 L 24.707031 -36.574219 L 24.878906 -36.972656 L 24.878906 -37.316406 L 24.992188 -38.75 L 24.992188 -39.09375 L 25.164062 -39.726562 L 24.878906 -40.125 L 24.363281 -40.183594 L 23.789062 -40.242188 L 23.273438 -40.183594 L 22.011719 -40.183594 L 20.351562 -40.125 L 19.890625 -40.183594 L 18.574219 -40.242188 L 14.273438 -40.183594 L 13.011719 -40.125 L 12.4375 -40.125 L 11.980469 -40.183594 L 11.578125 -40.183594 L 10.890625 -40.125 L 10.488281 -40.183594 L 10.144531 -40.125 L 9.171875 -40.125 L 8.714844 -39.78125 L 8.65625 -39.4375 L 8.484375 -39.09375 L 8.3125 -38.40625 L 8.425781 -38.003906 L 8.371094 -37.660156 L 8.3125 -36.917969 L 8.253906 -36.574219 L 8.140625 -36.230469 L 8.082031 -35.484375 L 7.96875 -35.082031 L 8.023438 -34.738281 L 7.851562 -34.335938 L 7.851562 -33.9375 L 7.679688 -33.589844 L 7.566406 -32.789062 L 7.335938 -32.042969 L 7.28125 -31.644531 L 7.335938 -31.296875 L 7.28125 -30.898438 L 7.164062 -30.4375 L 6.9375 -30.09375 L 6.878906 -28.890625 L 6.707031 -28.488281 L 6.648438 -26.886719 L 6.421875 -26.023438 L 6.25 -25.222656 L 6.304688 -24.878906 L 6.191406 -24.476562 L 6.019531 -24.019531 L 5.675781 -22.300781 L 5.445312 -21.953125 L 5.445312 -21.554688 L 5.386719 -21.152344 L 5.332031 -20.695312 L 5.160156 -20.292969 L 5.042969 -19.433594 L 4.816406 -18.628906 L 4.816406 -17.769531 L 4.585938 -16.566406 L 4.472656 -16.164062 L 4.300781 -15.304688 L 4.242188 -14.902344 L 4.070312 -14.503906 L 3.898438 -13.757812 L 3.957031 -13.414062 L 3.726562 -12.726562 L 3.726562 -12.4375 L 3.613281 -11.695312 L 3.496094 -11.234375 L 3.496094 -10.835938 L 3.382812 -9.917969 L 3.152344 -9.457031 L 3.039062 -8.714844 L 2.980469 -7.910156 L 2.921875 -7.507812 L 2.808594 -7.050781 L 2.808594 -6.648438 L 2.695312 -6.25 L 2.695312 -5.730469 L 2.523438 -5.273438 L 2.464844 -4.355469 L 2.234375 -3.496094 L 2.121094 -2.578125 L 2.007812 -1.71875 L 1.890625 -1.203125 L 1.71875 -0.6875 L 1.890625 -0.171875 L 2.40625 -0.0585938 L 5.445312 -0.0585938 L 5.847656 0 L 7.335938 0 Z M 8.425781 0.0585938 "/></g></g></g><g fill="#d63533" fill-opacity="1"><g transform="translate(139.323313, 306.498427)"><g><path d="M 13.871094 0.917969 L 15.132812 0.746094 L 15.765625 0.574219 L 16.164062 0.515625 L 16.96875 0.34375 L 17.425781 0.230469 L 17.828125 0.171875 L 19.144531 -0.34375 L 19.375 -0.515625 L 20.0625 -0.972656 L 20.75 -1.492188 L 21.039062 -1.835938 L 21.382812 -2.121094 L 22.070312 -2.808594 L 22.183594 -3.152344 L 22.472656 -3.496094 L 22.699219 -3.839844 L 23.214844 -4.585938 L 23.503906 -4.988281 L 23.960938 -6.019531 L 24.363281 -6.820312 L 24.417969 -7.394531 L 24.707031 -7.796875 L 24.878906 -8.425781 L 24.878906 -8.828125 L 25.050781 -9.515625 L 25.335938 -10.144531 L 25.394531 -10.777344 L 25.566406 -11.121094 L 25.851562 -11.808594 L 25.796875 -12.152344 L 26.367188 -14.160156 L 26.539062 -14.503906 L 26.65625 -15.304688 L 26.769531 -15.707031 L 26.769531 -16.222656 L 26.941406 -17.253906 L 27.113281 -17.597656 L 27.285156 -18.34375 L 27.34375 -19.03125 L 27.515625 -19.777344 L 27.628906 -20.523438 L 27.859375 -21.265625 L 27.800781 -21.953125 L 28.089844 -22.585938 L 28.03125 -23.160156 L 28.144531 -24.074219 L 28.261719 -24.476562 L 28.316406 -25.394531 L 28.375 -26.253906 L 28.488281 -27.058594 L 28.546875 -27.402344 L 28.546875 -27.972656 L 28.488281 -28.375 L 28.546875 -28.71875 L 28.660156 -29.121094 L 28.71875 -29.867188 L 28.71875 -30.265625 L 28.660156 -31.011719 L 28.71875 -31.355469 L 28.777344 -32.101562 L 28.777344 -32.503906 L 28.71875 -32.960938 L 28.605469 -34.050781 L 28.433594 -34.910156 L 28.316406 -35.3125 L 28.203125 -35.65625 L 28.03125 -36 L 27.6875 -36.746094 L 27.515625 -37.144531 L 27.230469 -37.488281 L 26.597656 -38.0625 L 25.96875 -38.578125 L 25.679688 -38.921875 L 25.222656 -39.210938 L 24.191406 -39.898438 L 23.332031 -40.296875 L 22.988281 -40.414062 L 22.527344 -40.46875 L 22.070312 -40.640625 L 21.152344 -40.757812 L 20.523438 -40.816406 L 20.179688 -40.871094 L 19.144531 -40.929688 L 18.457031 -40.871094 L 17.65625 -40.816406 L 16.625 -40.640625 L 16.050781 -40.585938 L 15.191406 -40.355469 L 14.847656 -40.296875 L 13.988281 -40.070312 L 13.300781 -39.726562 L 12.609375 -39.324219 L 12.210938 -39.039062 L 11.75 -38.867188 L 11.007812 -38.347656 L 10.203125 -37.488281 L 9.917969 -37.144531 L 9.515625 -36.859375 L 9.058594 -36.171875 L 8.597656 -35.425781 L 8.371094 -35.082031 L 8.3125 -34.679688 L 7.796875 -33.9375 L 7.566406 -33.535156 L 7.222656 -32.847656 L 6.9375 -32.042969 L 6.707031 -31.355469 L 6.535156 -30.953125 L 6.191406 -30.210938 L 6.078125 -29.464844 L 5.789062 -29.0625 L 5.558594 -27.628906 L 5.445312 -26.828125 L 5.386719 -26.484375 L 5.214844 -26.082031 L 5.101562 -25.394531 L 5.101562 -24.59375 L 4.988281 -24.191406 L 4.644531 -23.617188 L 4.699219 -23.273438 L 4.585938 -22.871094 L 4.585938 -22.527344 L 4.472656 -22.125 L 4.300781 -21.78125 L 4.300781 -21.382812 L 4.128906 -20.695312 L 4.128906 -19.949219 L 3.957031 -19.261719 L 3.785156 -18.230469 L 3.667969 -17.828125 L 3.554688 -17.082031 L 3.667969 -16.796875 L 3.4375 -15.992188 L 3.4375 -15.59375 L 3.324219 -14.789062 L 3.324219 -14.332031 L 3.09375 -13.527344 L 2.980469 -12.265625 L 2.980469 -11.867188 L 3.039062 -11.40625 L 2.867188 -10.835938 L 2.867188 -9.746094 L 2.75 -9.34375 L 2.921875 -8.199219 L 2.980469 -7.851562 L 3.039062 -7.050781 L 3.152344 -6.707031 L 3.210938 -6.304688 L 3.324219 -5.960938 L 3.4375 -5.675781 L 3.496094 -5.332031 L 3.667969 -4.929688 L 3.667969 -4.585938 L 4.128906 -3.839844 L 4.414062 -3.4375 L 4.585938 -3.09375 L 4.871094 -2.808594 L 5.042969 -2.523438 L 5.847656 -1.605469 L 6.878906 -0.746094 L 7.679688 -0.230469 L 8.082031 0 L 8.941406 0.230469 L 9.402344 0.285156 L 10.71875 0.6875 L 11.234375 0.746094 L 11.636719 0.800781 L 12.382812 0.746094 Z M 13.414062 -6.878906 L 13.070312 -6.9375 L 12.609375 -7.050781 L 12.152344 -7.222656 L 11.867188 -7.507812 L 11.523438 -8.023438 L 11.40625 -8.253906 L 11.234375 -8.65625 L 11.234375 -10.261719 L 11.0625 -10.664062 L 11.292969 -11.234375 L 11.351562 -11.921875 L 11.179688 -12.324219 L 11.351562 -12.726562 L 11.351562 -13.128906 L 11.523438 -13.988281 L 11.523438 -14.445312 L 11.636719 -14.847656 L 11.636719 -15.304688 L 11.75 -15.820312 L 11.695312 -16.050781 L 11.808594 -16.453125 L 11.75 -16.910156 L 12.039062 -17.714844 L 12.210938 -18.113281 L 12.152344 -18.574219 L 12.210938 -18.972656 L 12.210938 -19.375 L 12.324219 -20.179688 L 12.4375 -20.578125 L 12.667969 -21.496094 L 12.839844 -21.953125 L 12.957031 -22.816406 L 13.070312 -23.214844 L 13.128906 -23.617188 L 13.300781 -24.535156 L 13.472656 -25.335938 L 13.699219 -26.140625 L 13.757812 -26.484375 L 13.929688 -27.285156 L 13.988281 -27.746094 L 13.988281 -27.859375 L 14.332031 -29.0625 L 14.445312 -29.523438 L 14.558594 -29.921875 L 14.902344 -30.667969 L 15.132812 -31.070312 L 15.363281 -31.757812 L 15.765625 -32.386719 L 16.335938 -32.902344 L 17.253906 -33.246094 L 17.714844 -33.363281 L 18.800781 -33.417969 L 19.71875 -33.019531 L 20.121094 -32.503906 L 20.351562 -32.160156 L 20.578125 -31.011719 L 20.464844 -30.210938 L 20.40625 -29.464844 L 20.292969 -28.433594 L 20.292969 -27.6875 L 20.179688 -27.171875 L 20.007812 -26.367188 L 19.890625 -25.910156 L 19.835938 -25.164062 L 19.890625 -24.765625 L 19.777344 -24.363281 L 19.660156 -23.902344 L 19.546875 -23.214844 L 19.316406 -22.355469 L 19.375 -21.382812 L 19.203125 -21.039062 L 19.089844 -19.949219 L 18.917969 -19.488281 L 18.746094 -18.972656 L 18.628906 -17.65625 L 18.457031 -16.796875 L 18.285156 -16.28125 L 18.34375 -16.109375 L 18.34375 -15.648438 L 18.171875 -15.304688 L 18.113281 -14.847656 L 17.941406 -14.101562 L 17.769531 -13.699219 L 17.714844 -12.898438 L 17.542969 -12.4375 L 17.425781 -11.636719 L 17.3125 -11.234375 L 17.140625 -10.375 L 17.140625 -9.917969 L 17.023438 -9.515625 L 16.679688 -8.714844 L 16.28125 -7.910156 L 15.476562 -7.335938 L 14.960938 -7.109375 L 14.160156 -6.878906 Z M 13.414062 -6.878906 "/></g></g></g><g fill="#d63533" fill-opacity="1"><g transform="translate(167.124279, 306.498427)"><g><path d="M 4.644531 0.113281 L 5.101562 0.0585938 L 6.707031 0.113281 L 7.050781 -0.113281 L 7.28125 -0.515625 L 7.453125 -0.800781 L 7.625 -1.433594 L 7.96875 -2.292969 L 8.542969 -3.382812 L 8.769531 -4.070312 L 8.941406 -4.472656 L 9.058594 -4.871094 L 9.457031 -5.617188 L 9.746094 -6.25 L 11.292969 -6.25 L 13.816406 -6.191406 L 14.730469 -6.078125 L 15.992188 -6.019531 L 16.050781 -5.558594 L 16.050781 -2.867188 L 15.992188 -2.292969 L 16.050781 -1.71875 L 16.109375 -0.6875 L 16.222656 -0.113281 L 16.453125 0.0585938 L 17.3125 0.0585938 L 18.058594 0.113281 L 18.628906 0.0585938 L 19.03125 0 L 19.71875 0.0585938 L 20.179688 0.0585938 L 21.4375 0 L 22.242188 0 L 22.699219 0.0585938 L 23.101562 0 C 23.332031 0 23.503906 0.0585938 23.730469 0 C 24.019531 -0.171875 23.960938 -0.6875 23.902344 -0.917969 L 23.902344 -2.121094 L 23.847656 -3.382812 L 23.847656 -3.898438 L 23.789062 -4.355469 L 23.847656 -5.160156 L 23.847656 -6.019531 L 23.789062 -6.421875 L 23.730469 -7.164062 L 23.730469 -7.507812 L 23.617188 -9.6875 L 23.675781 -10.089844 L 23.617188 -10.890625 L 23.675781 -11.75 L 23.617188 -12.609375 L 23.617188 -13.011719 L 23.558594 -15.648438 L 23.558594 -17.367188 L 23.503906 -17.828125 L 23.445312 -18.515625 L 23.445312 -20.75 L 23.332031 -21.382812 L 23.273438 -22.300781 L 23.273438 -22.644531 L 23.214844 -23.386719 L 23.273438 -23.730469 L 23.214844 -24.535156 L 23.214844 -25.679688 L 23.101562 -26.484375 L 23.101562 -27.746094 L 23.160156 -28.144531 L 23.101562 -29.003906 L 23.101562 -29.808594 L 22.988281 -30.953125 L 22.929688 -31.699219 L 22.929688 -32.503906 L 22.871094 -34.566406 L 22.871094 -35.597656 L 22.757812 -35.941406 L 22.757812 -37.203125 L 22.585938 -39.667969 L 22.183594 -39.953125 L 21.898438 -40.070312 L 20.980469 -40.070312 L 20.464844 -40.011719 L 20.0625 -40.125 L 19.546875 -40.125 L 18.457031 -40.070312 L 17.542969 -40.070312 L 16.96875 -40.011719 L 15.878906 -40.070312 L 15.304688 -40.070312 L 14.902344 -40.011719 L 14.675781 -39.382812 L 14.503906 -39.039062 L 14.332031 -38.636719 L 13.816406 -37.605469 L 13.414062 -36.859375 L 13.070312 -35.828125 L 12.957031 -35.539062 L 12.726562 -35.195312 L 12.382812 -34.566406 L 12.265625 -34.164062 L 12.152344 -33.820312 L 11.980469 -33.476562 L 11.867188 -33.074219 L 11.351562 -32.042969 L 11.179688 -31.644531 L 11.007812 -31.070312 L 10.664062 -30.554688 L 10.488281 -30.210938 L 10.203125 -29.464844 L 9.746094 -28.261719 L 9.515625 -27.917969 L 9.230469 -27.515625 L 9.058594 -26.710938 L 8.714844 -25.96875 L 8.597656 -25.679688 L 8.425781 -24.9375 L 8.140625 -24.535156 L 7.96875 -23.789062 L 7.796875 -23.445312 L 7.453125 -22.816406 L 7.164062 -21.839844 L 6.765625 -21.09375 L 6.59375 -20.636719 L 6.132812 -19.03125 L 5.960938 -18.6875 L 5.675781 -17.886719 L 5.503906 -17.542969 L 5.332031 -17.140625 L 5.273438 -16.796875 L 4.929688 -15.992188 L 4.816406 -15.59375 L 4.472656 -14.902344 L 4.183594 -14.445312 L 4.070312 -13.929688 L 3.957031 -13.527344 L 3.554688 -12.726562 L 3.382812 -12.324219 L 3.09375 -11.578125 L 2.921875 -11.234375 L 2.867188 -10.835938 L 2.75 -10.488281 L 2.464844 -9.800781 L 2.179688 -9.402344 L 2.0625 -9.058594 L 1.605469 -8.023438 L 1.375 -7.28125 L 0.746094 -5.90625 L 0.457031 -5.214844 L 0.113281 -4.527344 L -0.457031 -2.808594 L -0.917969 -2.0625 L -1.261719 -1.375 L -1.320312 -1.03125 L -1.433594 -0.628906 L -1.320312 -0.171875 L -0.800781 -0.0585938 L 3.382812 0 L 3.785156 0.0585938 Z M 14.101562 -13.699219 L 13.585938 -13.757812 L 12.957031 -13.816406 L 12.496094 -13.816406 L 12.09375 -14.160156 L 12.265625 -14.558594 L 12.382812 -15.074219 L 12.496094 -15.476562 L 12.78125 -16.453125 L 13.011719 -16.851562 L 13.300781 -17.714844 L 13.355469 -18.113281 L 13.699219 -19.375 L 13.871094 -19.890625 L 14.042969 -20.292969 L 14.214844 -20.808594 L 14.445312 -21.210938 L 14.503906 -21.609375 L 14.730469 -22.183594 L 14.960938 -22.644531 L 15.25 -23.558594 L 15.421875 -24.132812 L 15.707031 -25.050781 L 15.9375 -25.796875 L 16.394531 -25.96875 L 16.453125 -24.648438 L 16.394531 -22.585938 L 16.335938 -20.40625 L 16.394531 -19.03125 L 16.28125 -18.574219 L 16.28125 -17.597656 L 16.222656 -17.195312 L 16.222656 -15.707031 L 16.164062 -15.25 L 16.222656 -14.789062 L 16.164062 -13.988281 L 15.820312 -13.699219 Z M 14.101562 -13.699219 "/></g></g></g><g fill="#d63533" fill-opacity="1"><g transform="translate(192.689693, 306.498427)"><g><path d="M 2.523438 0.0585938 L 3.265625 0 L 3.667969 0.0585938 L 5.273438 0.0585938 L 5.847656 0 L 10.546875 0 L 11.695312 -0.0585938 L 12.496094 0.0585938 L 13.355469 0 L 14.386719 0.0585938 L 15.648438 -0.113281 L 16.394531 -0.230469 L 17.484375 -0.230469 L 17.941406 -0.628906 L 18.171875 -1.546875 L 18.285156 -2.40625 L 18.34375 -2.75 L 18.34375 -3.152344 L 18.515625 -3.554688 L 18.800781 -5.558594 L 18.972656 -6.019531 L 18.917969 -6.421875 L 19.03125 -6.820312 L 19.089844 -7.679688 L 18.746094 -7.851562 L 17.253906 -7.851562 L 15.992188 -7.796875 L 13.011719 -7.796875 L 12.496094 -7.851562 L 11.921875 -7.851562 L 11.636719 -8.140625 L 11.636719 -8.714844 L 11.75 -9.285156 L 11.808594 -9.917969 L 11.921875 -10.316406 L 11.980469 -10.664062 L 12.039062 -11.0625 L 12.039062 -11.636719 L 12.152344 -12.152344 L 12.210938 -12.898438 L 12.4375 -13.644531 L 12.496094 -14.445312 L 12.609375 -14.902344 L 12.609375 -15.304688 L 12.839844 -16.222656 L 12.898438 -16.625 L 12.957031 -17.082031 L 13.128906 -17.886719 L 13.183594 -18.746094 L 13.414062 -19.660156 L 13.472656 -20.0625 L 13.644531 -20.921875 L 13.757812 -21.324219 L 13.757812 -22.125 L 13.871094 -22.527344 L 14.042969 -23.730469 L 14.042969 -24.191406 L 14.160156 -24.59375 L 14.101562 -25.050781 L 14.332031 -25.453125 L 14.503906 -26.195312 L 14.675781 -27 L 14.789062 -27.402344 L 14.847656 -27.800781 L 14.960938 -28.261719 L 14.847656 -28.71875 L 15.074219 -29.121094 L 15.191406 -29.921875 L 15.421875 -30.726562 L 15.421875 -31.183594 L 15.59375 -31.988281 L 16.050781 -33.992188 L 16.164062 -34.566406 L 16.28125 -35.195312 L 16.453125 -36.402344 L 16.566406 -36.746094 L 16.566406 -37.144531 L 16.910156 -38.523438 L 16.910156 -38.921875 L 16.96875 -39.324219 L 16.796875 -40.011719 L 15.648438 -40.070312 L 13.414062 -40.070312 L 11.292969 -40.125 L 9.917969 -40.125 L 9 -40.011719 L 8.828125 -39.667969 L 8.542969 -38.523438 L 8.425781 -38.175781 L 8.425781 -37.777344 L 8.371094 -37.089844 L 8.140625 -36.402344 L 7.96875 -35.484375 L 7.910156 -34.566406 L 7.679688 -34.164062 L 7.679688 -33.820312 L 7.625 -33.417969 L 7.625 -33.019531 L 7.394531 -32.675781 L 7.28125 -32.042969 L 7.222656 -31.296875 L 7.109375 -30.839844 L 7.222656 -30.4375 L 7.109375 -29.980469 L 6.878906 -29.179688 L 6.707031 -28.71875 L 6.765625 -28.261719 L 6.59375 -27.058594 L 6.476562 -26.367188 L 6.476562 -25.96875 L 6.191406 -25.222656 L 6.191406 -24.417969 L 6.132812 -23.960938 L 5.847656 -23.214844 L 5.730469 -22.527344 L 5.617188 -21.78125 L 5.273438 -20.179688 L 5.273438 -19.890625 L 5.042969 -19.089844 L 4.816406 -17.367188 L 4.527344 -16.566406 L 4.527344 -16.164062 L 4.300781 -15.363281 L 4.300781 -15.019531 L 4.242188 -14.617188 L 4.183594 -14.273438 L 4.183594 -13.472656 L 4.070312 -13.128906 L 3.957031 -12.324219 L 3.898438 -11.980469 L 3.898438 -11.636719 L 3.726562 -11.234375 L 3.554688 -10.488281 L 3.613281 -10.144531 L 3.4375 -9.746094 L 3.324219 -9.402344 L 3.039062 -8.597656 L 3.039062 -7.910156 L 2.921875 -7.394531 L 2.808594 -6.648438 L 2.75 -6.304688 L 2.75 -5.90625 L 2.523438 -5.160156 L 2.523438 -4.300781 L 2.292969 -3.554688 L 2.234375 -3.210938 L 2.179688 -2.808594 L 2.007812 -2.234375 L 1.777344 -1.664062 L 1.71875 -1.320312 L 1.777344 -0.972656 L 1.835938 -0.574219 L 2.0625 -0.230469 Z M 2.523438 0.0585938 "/></g></g></g><g fill="#d63533" fill-opacity="1"><g transform="translate(212.866883, 306.498427)"><g><path d="M 8.425781 0.0585938 L 8.886719 0 L 9.800781 -0.0585938 L 11.007812 -0.0585938 L 11.351562 -0.113281 L 12.09375 -0.0585938 L 13.011719 -0.113281 L 18.457031 -0.113281 L 18.628906 -0.746094 L 18.746094 -1.261719 L 18.800781 -2.234375 L 18.972656 -3.09375 L 19.03125 -3.496094 L 19.144531 -3.839844 L 19.261719 -4.242188 L 19.261719 -4.988281 L 19.488281 -6.25 L 19.546875 -6.707031 L 19.660156 -7.335938 L 19.71875 -7.566406 L 19.777344 -8.023438 L 19.375 -8.199219 L 17.769531 -8.140625 L 16.507812 -8.199219 L 15.707031 -8.253906 L 12.324219 -8.253906 L 11.523438 -8.371094 L 11.292969 -8.597656 L 11.292969 -9.058594 L 11.523438 -10.546875 L 11.695312 -11.578125 L 11.808594 -11.980469 L 11.867188 -12.554688 L 11.980469 -13.070312 L 12.152344 -13.644531 L 12.382812 -15.25 L 12.554688 -15.992188 L 12.78125 -16.625 L 13.300781 -16.625 L 14.042969 -16.679688 L 14.675781 -16.679688 L 15.648438 -16.625 L 17.082031 -16.679688 L 17.597656 -16.679688 L 18.457031 -16.738281 L 19.03125 -16.738281 L 19.144531 -16.851562 L 19.261719 -17.65625 L 19.433594 -18.574219 L 19.546875 -19.375 L 19.71875 -19.835938 L 19.71875 -20.234375 L 19.890625 -21.09375 L 20.007812 -21.496094 L 20.179688 -22.300781 L 20.292969 -22.929688 L 20.292969 -23.386719 L 20.40625 -24.074219 L 20.0625 -24.535156 L 19.605469 -24.648438 L 18.113281 -24.648438 L 17.023438 -24.535156 L 15.019531 -24.59375 L 13.988281 -24.59375 L 14.101562 -25.625 L 14.273438 -26.195312 L 14.214844 -26.65625 L 14.332031 -27.058594 L 14.503906 -27.859375 L 14.617188 -28.660156 L 14.789062 -29.75 L 14.789062 -30.210938 L 14.960938 -30.554688 L 14.960938 -31.355469 L 15.019531 -31.757812 L 15.191406 -32.445312 L 16.566406 -32.503906 L 20.292969 -32.503906 L 20.980469 -32.558594 L 23.386719 -32.558594 L 23.960938 -32.617188 L 24.132812 -33.363281 L 24.191406 -33.707031 L 24.417969 -34.507812 L 24.417969 -34.96875 L 24.59375 -35.828125 L 24.648438 -36.171875 L 24.707031 -36.574219 L 24.878906 -36.972656 L 24.878906 -37.316406 L 24.992188 -38.75 L 24.992188 -39.09375 L 25.164062 -39.726562 L 24.878906 -40.125 L 24.363281 -40.183594 L 23.789062 -40.242188 L 23.273438 -40.183594 L 22.011719 -40.183594 L 20.351562 -40.125 L 19.890625 -40.183594 L 18.574219 -40.242188 L 14.273438 -40.183594 L 13.011719 -40.125 L 12.4375 -40.125 L 11.980469 -40.183594 L 11.578125 -40.183594 L 10.890625 -40.125 L 10.488281 -40.183594 L 10.144531 -40.125 L 9.171875 -40.125 L 8.714844 -39.78125 L 8.65625 -39.4375 L 8.484375 -39.09375 L 8.3125 -38.40625 L 8.425781 -38.003906 L 8.371094 -37.660156 L 8.3125 -36.917969 L 8.253906 -36.574219 L 8.140625 -36.230469 L 8.082031 -35.484375 L 7.96875 -35.082031 L 8.023438 -34.738281 L 7.851562 -34.335938 L 7.851562 -33.9375 L 7.679688 -33.589844 L 7.566406 -32.789062 L 7.335938 -32.042969 L 7.28125 -31.644531 L 7.335938 -31.296875 L 7.28125 -30.898438 L 7.164062 -30.4375 L 6.9375 -30.09375 L 6.878906 -28.890625 L 6.707031 -28.488281 L 6.648438 -26.886719 L 6.421875 -26.023438 L 6.25 -25.222656 L 6.304688 -24.878906 L 6.191406 -24.476562 L 6.019531 -24.019531 L 5.675781 -22.300781 L 5.445312 -21.953125 L 5.445312 -21.554688 L 5.386719 -21.152344 L 5.332031 -20.695312 L 5.160156 -20.292969 L 5.042969 -19.433594 L 4.816406 -18.628906 L 4.816406 -17.769531 L 4.585938 -16.566406 L 4.472656 -16.164062 L 4.300781 -15.304688 L 4.242188 -14.902344 L 4.070312 -14.503906 L 3.898438 -13.757812 L 3.957031 -13.414062 L 3.726562 -12.726562 L 3.726562 -12.4375 L 3.613281 -11.695312 L 3.496094 -11.234375 L 3.496094 -10.835938 L 3.382812 -9.917969 L 3.152344 -9.457031 L 3.039062 -8.714844 L 2.980469 -7.910156 L 2.921875 -7.507812 L 2.808594 -7.050781 L 2.808594 -6.648438 L 2.695312 -6.25 L 2.695312 -5.730469 L 2.523438 -5.273438 L 2.464844 -4.355469 L 2.234375 -3.496094 L 2.121094 -2.578125 L 2.007812 -1.71875 L 1.890625 -1.203125 L 1.71875 -0.6875 L 1.890625 -0.171875 L 2.40625 -0.0585938 L 5.445312 -0.0585938 L 5.847656 0 L 7.335938 0 Z M 8.425781 0.0585938 "/></g></g></g><g fill="#d63533" fill-opacity="1"><g transform="translate(234.477117, 306.498427)"><g><path d="M 7.566406 0.113281 L 8.023438 0.0585938 L 8.886719 0 L 9.402344 -0.0585938 L 9.972656 0 L 10.144531 -0.515625 L 10.316406 -0.917969 L 10.375 -1.605469 L 10.433594 -2.007812 L 10.433594 -2.351562 L 10.488281 -2.75 L 10.546875 -3.496094 L 10.546875 -3.839844 L 10.664062 -4.242188 L 10.605469 -4.585938 L 10.777344 -5.386719 L 10.777344 -5.847656 L 10.890625 -6.191406 L 10.949219 -6.648438 L 11.179688 -7.851562 L 11.292969 -8.3125 L 11.292969 -9.515625 L 11.523438 -9.972656 L 11.636719 -10.777344 L 11.636719 -11.121094 L 11.75 -11.921875 L 12.039062 -12.667969 L 12.039062 -13.644531 L 12.210938 -14.847656 L 12.265625 -15.304688 L 12.4375 -16.109375 L 12.554688 -16.453125 L 12.609375 -16.679688 L 13.011719 -16.625 L 13.242188 -16.394531 L 13.472656 -15.9375 L 13.585938 -15.476562 L 13.816406 -15.019531 L 13.929688 -14.445312 L 14.101562 -13.644531 L 14.214844 -13.355469 L 14.273438 -12.554688 L 14.503906 -11.808594 L 14.617188 -11.0625 L 14.730469 -10.664062 L 14.960938 -9.972656 L 15.019531 -9.574219 L 15.363281 -8.542969 L 15.363281 -7.851562 L 15.59375 -7.28125 L 15.765625 -6.648438 L 15.820312 -6.25 L 15.992188 -5.90625 L 15.992188 -5.503906 L 16.164062 -5.101562 L 16.28125 -4.355469 L 16.394531 -4.183594 L 16.566406 -3.726562 L 16.566406 -3.265625 L 16.910156 -2.40625 L 17.082031 -1.777344 L 17.195312 -1.492188 L 17.367188 -0.800781 L 17.484375 -0.515625 L 18 0 L 18.34375 0.0585938 L 18.859375 0 L 19.316406 0 L 19.949219 -0.0585938 L 20.695312 -0.0585938 L 22.183594 -0.230469 L 23.386719 -0.402344 L 24.132812 -0.402344 L 24.765625 -0.515625 L 25.050781 -0.574219 L 25.222656 -1.320312 L 24.820312 -2.40625 L 24.707031 -2.921875 L 24.648438 -3.324219 L 24.59375 -4.011719 L 24.191406 -4.988281 L 24.074219 -5.789062 L 23.445312 -7.851562 L 23.332031 -8.597656 L 23.042969 -9.457031 L 23.042969 -9.800781 L 22.816406 -10.546875 L 22.699219 -11.007812 L 22.527344 -11.40625 L 22.414062 -12.210938 L 22.300781 -12.554688 L 22.125 -13.300781 L 21.953125 -13.644531 L 21.839844 -14.386719 L 21.78125 -14.847656 L 21.554688 -15.191406 L 21.4375 -15.9375 L 21.4375 -16.453125 L 21.152344 -17.3125 L 20.980469 -17.769531 L 20.980469 -18.285156 L 21.382812 -18.34375 L 22.183594 -18.746094 L 23.332031 -19.488281 L 24.132812 -20.351562 L 24.417969 -20.636719 L 25.050781 -21.382812 L 25.222656 -21.726562 L 25.679688 -22.472656 L 25.910156 -22.988281 L 26.082031 -23.386719 L 26.597656 -24.132812 L 26.886719 -24.820312 L 27.058594 -25.222656 L 27.171875 -25.566406 L 27.285156 -25.96875 L 27.515625 -26.65625 L 27.6875 -27.230469 L 27.800781 -28.144531 L 27.972656 -29.0625 L 27.972656 -29.464844 L 27.917969 -30.324219 L 27.972656 -30.726562 L 28.144531 -31.527344 L 28.144531 -31.988281 L 27.972656 -33.074219 L 27.972656 -33.476562 L 27.859375 -34.566406 L 27.6875 -35.484375 L 27.285156 -36.285156 L 26.886719 -36.972656 L 26.65625 -37.261719 L 26.367188 -37.605469 L 26.140625 -37.832031 L 25.453125 -38.234375 L 25.164062 -38.40625 L 24.820312 -38.578125 L 24.304688 -38.921875 L 23.902344 -39.039062 L 23.386719 -39.265625 L 22.757812 -39.554688 L 22.300781 -39.667969 L 21.382812 -39.667969 L 20.75 -39.78125 L 19.890625 -39.839844 L 19.144531 -39.953125 L 18.628906 -39.953125 L 17.769531 -40.070312 L 17.3125 -40.183594 L 16.738281 -40.125 L 16.335938 -40.070312 L 13.871094 -40.070312 L 10.433594 -40.125 L 9.628906 -40.125 L 9.058594 -40.011719 L 8.65625 -39.554688 L 8.425781 -39.265625 L 8.484375 -38.636719 L 8.253906 -38.175781 L 8.253906 -37.71875 L 8.199219 -37.316406 L 8.140625 -36.859375 L 7.910156 -35.253906 L 7.738281 -34.335938 L 7.566406 -33.648438 L 7.453125 -33.246094 L 7.453125 -32.902344 L 7.394531 -32.160156 L 7.394531 -31.816406 L 7.335938 -31.46875 L 7.164062 -30.667969 L 6.992188 -29.75 L 6.820312 -28.949219 L 6.765625 -28.605469 L 6.707031 -27.800781 L 6.476562 -27.113281 L 6.421875 -26.769531 L 6.421875 -26.367188 L 6.363281 -26.023438 L 6.25 -25.28125 L 6.191406 -24.878906 L 6.132812 -24.535156 L 6.132812 -24.132812 L 5.847656 -22.929688 L 5.847656 -22.472656 L 5.730469 -21.667969 L 5.617188 -20.921875 L 5.558594 -20.578125 L 5.445312 -19.949219 L 5.332031 -19.546875 L 5.332031 -19.203125 L 5.160156 -18.859375 L 5.042969 -18.457031 L 4.988281 -17.769531 L 5.042969 -17.425781 L 4.929688 -17.082031 L 4.644531 -16.679688 L 4.644531 -16.164062 L 4.585938 -15.707031 L 4.527344 -15.304688 L 4.300781 -14.503906 L 4.300781 -14.042969 L 4.242188 -13.183594 L 4.128906 -12.609375 L 4.128906 -12.09375 L 3.839844 -11.0625 L 3.839844 -10.203125 L 3.613281 -9.746094 L 3.667969 -9.285156 L 3.613281 -8.886719 L 3.496094 -8.425781 L 3.4375 -7.625 L 3.265625 -7.164062 L 3.324219 -6.765625 L 3.152344 -6.304688 L 3.152344 -5.90625 L 2.980469 -5.101562 L 2.921875 -4.699219 L 2.921875 -4.355469 L 2.75 -3.957031 L 2.75 -3.554688 L 2.636719 -3.210938 L 2.636719 -2.808594 L 2.578125 -2.179688 L 2.523438 -1.605469 L 2.351562 -1.03125 L 2.351562 -0.515625 L 2.464844 -0.171875 L 2.980469 -0.0585938 L 4.757812 0.0585938 L 5.503906 0.0585938 Z M 15.019531 -23.503906 L 14.042969 -23.617188 L 14.101562 -24.074219 L 14.042969 -24.476562 L 14.101562 -24.878906 L 14.273438 -25.796875 L 14.386719 -26.3125 L 14.332031 -26.828125 L 14.503906 -27.34375 L 14.617188 -28.203125 L 14.617188 -28.605469 L 14.789062 -29.523438 L 14.902344 -29.980469 L 14.960938 -30.726562 L 15.019531 -31.585938 L 15.132812 -32.503906 L 15.304688 -32.902344 L 15.476562 -33.535156 L 15.992188 -33.707031 L 17.367188 -33.648438 L 18.628906 -33.476562 L 19.144531 -33.191406 L 19.546875 -32.789062 L 19.835938 -32.273438 L 20.007812 -31.070312 L 20.0625 -29.808594 L 20.007812 -28.890625 L 19.835938 -28.433594 L 19.835938 -27.972656 L 19.433594 -27.171875 L 19.375 -26.828125 L 19.261719 -26.367188 L 18.972656 -25.625 L 18.574219 -25.28125 L 18.34375 -24.9375 L 17.941406 -24.476562 L 17.542969 -24.246094 L 16.96875 -23.902344 L 16.625 -23.675781 L 15.9375 -23.503906 Z M 15.019531 -23.503906 "/></g></g></g><g fill="#d63533" fill-opacity="1"><g transform="translate(261.418252, 306.498427)"><g><path d="M 7.109375 0.171875 L 7.796875 0 L 12.78125 0 L 13.472656 -0.285156 L 13.585938 -0.628906 L 13.757812 -1.433594 L 13.871094 -2.234375 L 14.214844 -3.839844 L 14.503906 -5.101562 L 14.445312 -5.558594 L 14.617188 -6.363281 L 14.730469 -6.820312 L 15.019531 -8.023438 L 15.191406 -8.769531 L 15.25 -9.171875 L 15.476562 -9.917969 L 15.648438 -10.835938 L 15.820312 -11.636719 L 15.765625 -12.039062 L 15.820312 -12.382812 L 15.878906 -12.78125 L 16.109375 -13.472656 L 16.164062 -13.871094 L 16.28125 -14.214844 L 16.335938 -14.558594 L 16.335938 -15.132812 L 16.453125 -15.648438 L 16.625 -16.507812 L 16.796875 -17.3125 L 16.796875 -17.65625 L 16.910156 -18 L 16.96875 -18.800781 L 17.195312 -19.203125 L 17.367188 -19.890625 L 17.425781 -20.636719 L 17.425781 -21.039062 L 17.597656 -21.382812 L 17.769531 -22.183594 L 17.886719 -22.585938 L 18 -23.445312 L 18.285156 -24.132812 L 18.285156 -24.535156 L 18.34375 -24.878906 L 18.402344 -25.566406 L 18.402344 -25.910156 L 18.628906 -26.65625 L 18.917969 -27.457031 L 18.800781 -27.746094 L 19.03125 -28.203125 L 19.261719 -29.234375 L 19.316406 -29.636719 L 19.433594 -30.382812 L 19.546875 -30.726562 L 19.546875 -31.070312 L 19.71875 -31.46875 L 19.660156 -31.816406 L 19.777344 -32.214844 L 20.292969 -32.273438 L 22.699219 -32.214844 L 23.273438 -32.214844 L 23.789062 -32.273438 L 24.476562 -32.273438 L 24.992188 -32.214844 L 25.566406 -32.273438 L 25.796875 -32.789062 L 25.851562 -33.589844 L 25.96875 -33.992188 L 26.195312 -34.738281 L 26.253906 -35.425781 L 26.3125 -35.769531 L 26.425781 -36.171875 L 26.539062 -36.859375 L 26.539062 -37.203125 L 26.65625 -37.605469 L 26.710938 -37.949219 L 26.710938 -38.347656 L 26.828125 -38.808594 L 26.886719 -39.210938 L 26.886719 -39.554688 L 26.769531 -40.011719 L 26.253906 -40.125 L 25.453125 -40.183594 L 21.898438 -40.183594 L 21.382812 -40.242188 L 20.179688 -40.183594 L 19.316406 -40.242188 L 15.648438 -40.183594 L 14.386719 -40.183594 L 13.988281 -40.242188 L 9.746094 -40.242188 L 9.34375 -40.183594 L 8.941406 -40.183594 L 8.65625 -40.242188 L 7.164062 -40.242188 L 6.765625 -40.183594 L 6.25 -39.78125 L 5.960938 -39.152344 L 5.90625 -38.808594 L 5.90625 -38.003906 L 5.730469 -37.660156 L 5.503906 -36.917969 L 5.445312 -36.113281 L 5.332031 -35.769531 L 5.101562 -34.96875 L 5.160156 -34.566406 L 5.160156 -34.109375 L 4.988281 -33.648438 L 4.871094 -32.960938 L 5.042969 -32.445312 L 5.558594 -32.273438 L 6.019531 -32.273438 L 6.59375 -32.214844 L 7.109375 -32.214844 L 7.507812 -32.273438 L 8.3125 -32.214844 L 11.40625 -32.214844 L 11.351562 -31.296875 L 11.234375 -30.4375 L 11.121094 -30.039062 L 10.949219 -29.292969 L 10.949219 -28.949219 L 10.890625 -28.546875 L 10.890625 -28.203125 L 10.835938 -27.859375 L 10.546875 -26.941406 L 10.433594 -26.539062 L 10.375 -26.140625 L 10.375 -25.679688 L 10.261719 -25.394531 L 10.261719 -24.820312 L 9.972656 -24.191406 L 10.03125 -23.789062 L 9.859375 -22.929688 L 9.746094 -22.585938 L 9.746094 -22.183594 L 9.515625 -21.839844 L 9.402344 -21.4375 L 9.402344 -20.921875 L 9.230469 -20.351562 L 9.230469 -19.546875 L 9.113281 -19.203125 L 8.828125 -18.515625 L 8.941406 -18.113281 L 8.828125 -17.714844 L 8.597656 -16.851562 L 8.3125 -16.050781 L 8.199219 -15.648438 L 8.140625 -15.25 L 8.253906 -14.675781 L 7.96875 -14.101562 L 7.910156 -13.300781 L 7.796875 -12.957031 L 7.679688 -12.210938 L 7.625 -11.808594 L 7.507812 -11.40625 L 7.335938 -10.546875 L 7.164062 -9.859375 L 7.164062 -9.402344 L 6.878906 -8.199219 L 6.9375 -7.738281 L 6.878906 -7.335938 L 6.59375 -6.535156 L 6.59375 -6.132812 L 6.535156 -5.332031 L 6.421875 -4.988281 L 6.363281 -4.128906 L 6.25 -3.726562 L 5.847656 -2.523438 L 5.789062 -1.320312 L 5.675781 -0.457031 L 6.191406 0 L 6.59375 0 Z M 7.109375 0.171875 "/></g></g></g></svg>